<svg width="1439" height="500" viewBox="0 0 1439 500" fill="none" xmlns="http://www.w3.org/2000/svg">
<rect width="1439" height="500" fill="white"/>
<path d="M217.624 21.1185C220.099 19.6895 223.149 19.6895 225.624 21.1185L417.845 132.095C420.32 133.524 421.845 136.165 421.845 139.023V360.977C421.845 363.835 420.32 366.476 417.845 367.905L225.624 478.881C223.149 480.31 220.099 480.31 217.624 478.881L25.4028 367.905C22.9275 366.476 21.4027 363.835 21.4027 360.977V139.023C21.4027 136.165 22.9275 133.524 25.4028 132.095L217.624 21.1185Z" fill="white" stroke="#5850EC" stroke-width="28"/>
<path d="M217.624 91.3609C220.099 89.9319 223.149 89.9318 225.624 91.3609L357.012 167.216C359.487 168.645 361.012 171.286 361.012 174.145V325.855C361.012 328.714 359.487 331.355 357.012 332.784L225.624 408.639C223.149 410.068 220.099 410.068 217.624 408.639L86.2356 332.784C83.7604 331.355 82.2355 328.714 82.2355 325.855V174.145C82.2355 171.286 83.7604 168.645 86.2356 167.216L217.624 91.3609Z" fill="#A4CAFE" stroke="#5850EC" stroke-width="28"/>
<path d="M95.8793 177.326L221.556 251.612M221.556 251.612L347.061 177.562M221.556 251.612V397.656" stroke="#5850EC" stroke-width="28" stroke-linejoin="round"/>
<path d="M541.93 401H553.924V377.567H576.997V367.678H553.924V354.161H579.49V344.273H541.93V401ZM638.127 372.636C638.127 354.078 626.604 343.497 611.563 343.497C596.44 343.497 585 354.078 585 372.636C585 391.112 596.44 401.776 611.563 401.776C626.604 401.776 638.127 391.195 638.127 372.636ZM625.967 372.636C625.967 384.658 620.261 391.167 611.563 391.167C602.838 391.167 597.16 384.658 597.16 372.636C597.16 360.615 602.838 354.106 611.563 354.106C620.261 354.106 625.967 360.615 625.967 372.636ZM645.451 401H657.445V380.891H666.197L676.945 401H690.185L678.136 378.952C684.59 376.182 688.163 370.559 688.163 362.803C688.163 351.53 680.712 344.273 667.832 344.273H645.451V401ZM657.445 371.251V354.078H665.533C672.457 354.078 675.809 357.153 675.809 362.803C675.809 368.426 672.457 371.251 665.588 371.251H657.445ZM711.571 401H747.884V391.112H723.565V344.273H711.571V401ZM765.492 401L769.702 388.065H790.172L794.382 401H807.234L787.679 344.273H772.223L752.64 401H765.492ZM772.749 378.702L779.729 357.236H780.172L787.153 378.702H772.749ZM812.502 401H824.496V380.891H833.249L843.996 401H857.236L845.187 378.952C851.641 376.182 855.214 370.559 855.214 362.803C855.214 351.53 847.763 344.273 834.883 344.273H812.502V401ZM824.496 371.251V354.078H832.584C839.508 354.078 842.86 357.153 842.86 362.803C842.86 368.426 839.508 371.251 832.639 371.251H824.496ZM871.907 401L876.117 388.065H896.587L900.797 401H913.649L894.094 344.273H878.638L859.055 401H871.907ZM879.164 378.702L886.144 357.236H886.588L893.568 378.702H879.164ZM919.026 344.273H905.703L925.286 401H940.742L960.297 344.273H947.002L933.263 387.372H932.737L919.026 344.273ZM965.565 401H1003.9V391.112H977.558V377.567H1001.82V367.678H977.558V354.161H1003.79V344.273H965.565V401ZM1011.76 401H1048.08V391.112H1023.76V344.273H1011.76V401Z" fill="#5850EC"/>
<path d="M611.75 272.25C620.083 272.75 624.25 276.5 624.25 283.5C624.25 287.5 622.583 290.583 619.25 292.75C616.083 294.75 611.5 295.583 605.5 295.25L598.75 294.75C570.75 292.75 556.75 277.75 556.75 249.75V195.25H544.25C539.75 195.25 536.25 194.25 533.75 192.25C531.417 190.25 530.25 187.333 530.25 183.5C530.25 179.667 531.417 176.75 533.75 174.75C536.25 172.75 539.75 171.75 544.25 171.75H556.75V148.75C556.75 144.25 558.167 140.667 561 138C563.833 135.333 567.667 134 572.5 134C577.167 134 580.917 135.333 583.75 138C586.583 140.667 588 144.25 588 148.75V171.75H609.25C613.75 171.75 617.167 172.75 619.5 174.75C622 176.75 623.25 179.667 623.25 183.5C623.25 187.333 622 190.25 619.5 192.25C617.167 194.25 613.75 195.25 609.25 195.25H588V252C588 264.333 593.667 270.917 605 271.75L611.75 272.25ZM737.285 260.5C740.118 260.5 742.368 261.583 744.035 263.75C745.868 265.917 746.785 268.833 746.785 272.5C746.785 277.667 743.702 282 737.535 285.5C731.868 288.667 725.452 291.25 718.285 293.25C711.118 295.083 704.285 296 697.785 296C678.118 296 662.535 290.333 651.035 279C639.535 267.667 633.785 252.167 633.785 232.5C633.785 220 636.285 208.917 641.285 199.25C646.285 189.583 653.285 182.083 662.285 176.75C671.452 171.417 681.785 168.75 693.285 168.75C704.285 168.75 713.868 171.167 722.035 176C730.202 180.833 736.535 187.667 741.035 196.5C745.535 205.333 747.785 215.75 747.785 227.75C747.785 234.917 744.618 238.5 738.285 238.5H664.535C665.535 250 668.785 258.5 674.285 264C679.785 269.333 687.785 272 698.285 272C703.618 272 708.285 271.333 712.285 270C716.452 268.667 721.118 266.833 726.285 264.5C731.285 261.833 734.952 260.5 737.285 260.5ZM694.035 190.75C685.535 190.75 678.702 193.417 673.535 198.75C668.535 204.083 665.535 211.75 664.535 221.75H721.035C720.702 211.583 718.202 203.917 713.535 198.75C708.868 193.417 702.368 190.75 694.035 190.75ZM844.348 168.75C859.014 168.75 869.931 172.917 877.098 181.25C884.264 189.583 887.848 202.167 887.848 219V280.5C887.848 285.167 886.431 288.833 883.598 291.5C880.931 294.167 877.181 295.5 872.348 295.5C867.514 295.5 863.681 294.167 860.848 291.5C858.014 288.833 856.598 285.167 856.598 280.5V220.75C856.598 211.25 854.764 204.333 851.098 200C847.598 195.667 842.014 193.5 834.348 193.5C825.348 193.5 818.098 196.333 812.598 202C807.264 207.667 804.598 215.25 804.598 224.75V280.5C804.598 285.167 803.181 288.833 800.348 291.5C797.514 294.167 793.681 295.5 788.848 295.5C784.014 295.5 780.181 294.167 777.348 291.5C774.681 288.833 773.348 285.167 773.348 280.5V183.75C773.348 179.417 774.764 175.917 777.598 173.25C780.431 170.583 784.264 169.25 789.098 169.25C793.431 169.25 796.931 170.583 799.598 173.25C802.431 175.75 803.848 179.083 803.848 183.25V190C808.014 183.167 813.598 177.917 820.598 174.25C827.598 170.583 835.514 168.75 844.348 168.75ZM972.588 168.75C989.588 168.75 1002.17 173 1010.34 181.5C1018.67 189.833 1022.84 202.583 1022.84 219.75V280.75C1022.84 285.25 1021.5 288.833 1018.84 291.5C1016.17 294 1012.5 295.25 1007.84 295.25C1003.5 295.25 999.921 293.917 997.088 291.25C994.421 288.583 993.088 285.083 993.088 280.75V275.25C990.255 281.75 985.755 286.833 979.588 290.5C973.588 294.167 966.588 296 958.588 296C950.421 296 943.005 294.333 936.338 291C929.671 287.667 924.421 283.083 920.588 277.25C916.755 271.417 914.838 264.917 914.838 257.75C914.838 248.75 917.088 241.667 921.588 236.5C926.255 231.333 933.755 227.583 944.088 225.25C954.421 222.917 968.671 221.75 986.838 221.75H993.088V216C993.088 207.833 991.338 201.917 987.838 198.25C984.338 194.417 978.671 192.5 970.838 192.5C966.005 192.5 961.088 193.25 956.088 194.75C951.088 196.083 945.171 198.083 938.338 200.75C934.005 202.917 930.838 204 928.838 204C925.838 204 923.338 202.917 921.338 200.75C919.505 198.583 918.588 195.75 918.588 192.25C918.588 189.417 919.255 187 920.588 185C922.088 182.833 924.505 180.833 927.838 179C933.671 175.833 940.588 173.333 948.588 171.5C956.755 169.667 964.755 168.75 972.588 168.75ZM964.838 273.5C973.171 273.5 979.921 270.75 985.088 265.25C990.421 259.583 993.088 252.333 993.088 243.5V238.25H988.588C977.421 238.25 968.755 238.75 962.588 239.75C956.421 240.75 952.005 242.5 949.338 245C946.671 247.5 945.338 250.917 945.338 255.25C945.338 260.583 947.171 265 950.838 268.5C954.671 271.833 959.338 273.5 964.838 273.5ZM1125.6 168.75C1140.26 168.75 1151.18 172.917 1158.35 181.25C1165.51 189.583 1169.1 202.167 1169.1 219V280.5C1169.1 285.167 1167.68 288.833 1164.85 291.5C1162.18 294.167 1158.43 295.5 1153.6 295.5C1148.76 295.5 1144.93 294.167 1142.1 291.5C1139.26 288.833 1137.85 285.167 1137.85 280.5V220.75C1137.85 211.25 1136.01 204.333 1132.35 200C1128.85 195.667 1123.26 193.5 1115.6 193.5C1106.6 193.5 1099.35 196.333 1093.85 202C1088.51 207.667 1085.85 215.25 1085.85 224.75V280.5C1085.85 285.167 1084.43 288.833 1081.6 291.5C1078.76 294.167 1074.93 295.5 1070.1 295.5C1065.26 295.5 1061.43 294.167 1058.6 291.5C1055.93 288.833 1054.6 285.167 1054.6 280.5V183.75C1054.6 179.417 1056.01 175.917 1058.85 173.25C1061.68 170.583 1065.51 169.25 1070.35 169.25C1074.68 169.25 1078.18 170.583 1080.85 173.25C1083.68 175.75 1085.1 179.083 1085.1 183.25V190C1089.26 183.167 1094.85 177.917 1101.85 174.25C1108.85 170.583 1116.76 168.75 1125.6 168.75ZM1255.09 296C1242.92 296 1232.17 293.417 1222.84 288.25C1213.67 283.083 1206.59 275.75 1201.59 266.25C1196.59 256.75 1194.09 245.667 1194.09 233C1194.09 220.333 1196.67 209.167 1201.84 199.5C1207.17 189.667 1214.59 182.083 1224.09 176.75C1233.59 171.417 1244.5 168.75 1256.84 168.75C1263.34 168.75 1269.84 169.667 1276.34 171.5C1283 173.333 1288.84 175.833 1293.84 179C1299.17 182.5 1301.84 186.917 1301.84 192.25C1301.84 195.917 1300.92 198.917 1299.09 201.25C1297.42 203.417 1295.17 204.5 1292.34 204.5C1290.5 204.5 1288.59 204.083 1286.59 203.25C1284.59 202.417 1282.59 201.417 1280.59 200.25C1276.92 198.083 1273.42 196.417 1270.09 195.25C1266.75 193.917 1262.92 193.25 1258.59 193.25C1248.25 193.25 1240.25 196.667 1234.59 203.5C1229.09 210.167 1226.34 219.833 1226.34 232.5C1226.34 245 1229.09 254.667 1234.59 261.5C1240.25 268.167 1248.25 271.5 1258.59 271.5C1262.75 271.5 1266.42 270.917 1269.59 269.75C1272.92 268.417 1276.59 266.667 1280.59 264.5C1283.09 263 1285.25 261.917 1287.09 261.25C1288.92 260.417 1290.75 260 1292.59 260C1295.25 260 1297.5 261.167 1299.34 263.5C1301.17 265.833 1302.09 268.75 1302.09 272.25C1302.09 275.083 1301.42 277.583 1300.09 279.75C1298.92 281.75 1296.92 283.583 1294.09 285.25C1288.92 288.583 1282.92 291.25 1276.09 293.25C1269.25 295.083 1262.25 296 1255.09 296ZM1408.16 178.25C1409.49 175.25 1411.24 173.083 1413.41 171.75C1415.74 170.25 1418.24 169.5 1420.91 169.5C1424.74 169.5 1428.16 170.833 1431.16 173.5C1434.32 176 1435.91 179.167 1435.91 183C1435.91 184.833 1435.41 186.75 1434.41 188.75L1366.16 331.75C1363.32 337.417 1358.91 340.25 1352.91 340.25C1349.07 340.25 1345.66 339 1342.66 336.5C1339.82 334.167 1338.41 331.167 1338.41 327.5C1338.41 325.667 1338.91 323.583 1339.91 321.25L1356.91 285.5L1310.41 188.75C1309.57 187.083 1309.16 185.167 1309.16 183C1309.16 179.167 1310.74 175.917 1313.91 173.25C1317.24 170.583 1320.99 169.25 1325.16 169.25C1327.99 169.25 1330.57 170 1332.91 171.5C1335.24 172.833 1337.07 175 1338.41 178L1373.41 255.25L1408.16 178.25Z" fill="#5850EC"/>
</svg>
