<svg class="h-full" fill="none" xmlns="http://www.w3.org/2000/svg" viewBox="0 0 1005 380">
    <title>Tenancy for Laravel</title>
    <g filter="url(#filter0_dd)">
        <path fill-rule="evenodd" clip-rule="evenodd"
            d="M192.745 340.522c-.172-.014-.343-.027-.508-.076-.856-.252-1.7-.573-2.547-.933L68.1027 269.381c-3.187-1.838-5.1417-5.2-5.1349-8.866l.0453-135.633c.0001-10.666 13.761-20.293 20.6414-23.773L185.78 42.1467c7.652-4.4139 16.812-1.7742 20.435.0974l116.45 67.1689c.792.456 1.505 1.003 2.138 1.64.157.148.283.329.407.506.055.08.11.159.167.234l.012.013c.372.424.759.865 1.041 1.349.131.218.22.465.309.711.043.118.086.237.133.352.063.148.132.295.201.443.145.309.291.619.379.941.071.267.095.539.118.807.014.152.027.303.048.452.021.166.052.331.083.497.057.298.113.597.109.904l-.05 141.543c.007 3.643-1.938 7.007-5.099 8.824l-122.669 70.808c-.307.186-.633.3-.964.415-.116.041-.233.082-.35.126-.139.056-.277.12-.415.184-.245.114-.492.229-.759.302-.323.084-.665.113-1.005.142-.163.014-.325.028-.485.048-.123.016-.247.038-.371.06-.258.047-.516.093-.771.089-.411-.002-.824-.076-1.238-.15-.156-.028-.313-.056-.47-.08-.139-.03-.28-.041-.419-.051zM136.729 94.0941L93.7909 118.886c-3.4082 1.505-10.2246 7.149-10.2246 17.693l-.0337 117.954-.0131.022 101.0055 58.26c3.449 2.108 12.396 5.06 20.593 0l102.189-58.978.031-117.903c0-9.451-6.8-15.778-10.2-17.761L196.036 59.8575l-59.307 34.2366z"
            fill="#5A67D8" />
    </g>
    <path fill-rule="evenodd" clip-rule="evenodd"
        d="M192.556 296.574c.213.063.436.042.657.09.405.062.808.161 1.209.162.267.004.538-.069.809-.105.351-.044.716-.047 1.055-.135.295-.08.557-.234.831-.344.319-.12.636-.205.93-.383l86.839-50.126c2.238-1.286 3.614-3.667 3.61-6.246l.035-100.2c.004-.34-.095-.664-.136-.992-.042-.292-.039-.595-.117-.891-.093-.337-.273-.655-.411-.98-.104-.253-.176-.524-.313-.753-.2-.343-.474-.655-.737-.955l-.008-.009c-.131-.172-.246-.372-.407-.524-.448-.451-.953-.838-1.513-1.161l-82.437-47.5496c-2.565-1.325-9.049-3.1937-14.466-.069L115.69 127.143c-4.871 2.464-14.613 9.28-14.613 16.83l-.032 96.016c-.005 2.595 1.379 4.976 3.635 6.277l86.073 49.647c.6.255 1.198.482 1.803.661zm-69.691-156.846l71.572 41.283 41.986-24.241 30.395-17.546-71.572-41.2829-41.984 24.2369-30.397 17.55zm78.811 137.286l72.341-41.752.021-83.465-72.34 41.752-.022 83.465zm-86.049-124.761l-.024 83.502-.009.016 71.572 41.282.015-35.075.018-48.442-71.572-41.283z"
        fill="#4C51BF" />
    <path
        d="M194.437 181.011l-71.572-41.283 30.397-17.55 41.984-24.2369 71.572 41.2829-30.395 17.546-41.986 24.241zM115.603 235.755l.024-83.502 71.572 41.283-.018 48.442-.015 35.075-71.572-41.282.009-.016zM274.017 235.262l-72.341 41.752.022-83.465 72.34-41.752-.021 83.465z"
        fill="#4C51BF" />
    <path fill-rule="evenodd" clip-rule="evenodd"
        d="M192.556 296.322c.213.063.436.042.657.09.405.062.808.161 1.209.163.267.004.538-.07.809-.106.351-.043.716-.046 1.055-.135.295-.08.557-.234.831-.343.319-.121.636-.206.93-.383l86.839-50.127c2.238-1.285 3.614-3.667 3.61-6.246l.035-100.2c.004-.339-.095-.664-.136-.992-.042-.292-.039-.595-.117-.891-.093-.337-.273-.655-.411-.98-.104-.252-.176-.524-.313-.753-.2-.342-.474-.654-.737-.954l-.008-.01c-.131-.172-.246-.372-.407-.523-.448-.451-.953-.839-1.513-1.162l-82.437-47.5494c-2.565-1.325-9.049-3.1937-14.466-.069L115.69 126.892c-4.871 2.463-14.613 9.279-14.613 16.829l-.032 96.016c-.005 2.596 1.379 4.976 3.635 6.277l86.073 49.647c.6.255 1.198.482 1.803.661zm-69.691-156.845l71.572 41.282 41.986-24.241 30.395-17.546-71.572-41.2827-41.984 24.2367-30.397 17.551zm78.811 137.285l72.341-41.752.021-83.465-72.34 41.752-.022 83.465zm-86.049-124.761l-.024 83.502-.009.016 71.572 41.282.015-35.074.018-48.443-71.572-41.283z"
        fill="#EBF4FF" />
    <path
        d="M479.936 172.472c4.8.288 7.2 2.448 7.2 6.48 0 2.304-.96 4.08-2.88 5.328-1.824 1.152-4.464 1.632-7.92 1.44l-3.888-.288c-16.128-1.152-24.192-9.792-24.192-25.92V128.12h-7.2c-2.592 0-4.608-.576-6.048-1.728-1.344-1.152-2.016-2.832-2.016-5.04s.672-3.888 2.016-5.04c1.44-1.152 3.456-1.728 6.048-1.728h7.2v-13.248c0-2.592.816-4.656 2.448-6.192 1.632-1.536 3.84-2.304 6.624-2.304 2.688 0 4.848.768 6.48 2.304 1.632 1.536 2.448 3.6 2.448 6.192v13.248h12.24c2.592 0 4.56.576 5.904 1.728 1.44 1.152 2.16 2.832 2.16 5.04s-.72 3.888-2.16 5.04c-1.344 1.152-3.312 1.728-5.904 1.728h-12.24v32.688c0 7.104 3.264 10.896 9.792 11.376l3.888.288zm72.308-6.768c1.632 0 2.928.624 3.888 1.872 1.056 1.248 1.584 2.928 1.584 5.04 0 2.976-1.776 5.472-5.328 7.488-3.264 1.824-6.96 3.312-11.088 4.464-4.128 1.056-8.064 1.584-11.808 1.584-11.328 0-20.304-3.264-26.928-9.792-6.624-6.528-9.936-15.456-9.936-26.784 0-7.2 1.44-13.584 4.32-19.152 2.88-5.568 6.912-9.888 12.096-12.96 5.28-3.072 11.232-4.608 17.856-4.608 6.336 0 11.856 1.392 16.56 4.176 4.704 2.784 8.352 6.72 10.944 11.808 2.592 5.088 3.888 11.088 3.888 18 0 4.128-1.824 6.192-5.472 6.192h-42.48c.576 6.624 2.448 11.52 5.616 14.688 3.168 3.072 7.776 4.608 13.824 4.608 3.072 0 5.76-.384 8.064-1.152 2.4-.768 5.088-1.824 8.064-3.168 2.88-1.536 4.992-2.304 6.336-2.304zm-24.912-40.176c-4.896 0-8.832 1.536-11.808 4.608-2.88 3.072-4.608 7.488-5.184 13.248h32.544c-.192-5.856-1.632-10.272-4.32-13.248-2.688-3.072-6.432-4.608-11.232-4.608zm86.58-12.672c8.448 0 14.736 2.4 18.864 7.2 4.128 4.8 6.192 12.048 6.192 21.744v35.424c0 2.688-.816 4.8-2.448 6.336-1.536 1.536-3.696 2.304-6.48 2.304-2.784 0-4.992-.768-6.624-2.304-1.632-1.536-2.448-3.648-2.448-6.336v-34.416c0-5.472-1.056-9.456-3.168-11.952-2.016-2.496-5.232-3.744-9.648-3.744-5.184 0-9.36 1.632-12.528 4.896-3.072 3.264-4.608 7.632-4.608 13.104v32.112c0 2.688-.816 4.8-2.448 6.336-1.632 1.536-3.84 2.304-6.624 2.304s-4.992-.768-6.624-2.304c-1.536-1.536-2.304-3.648-2.304-6.336v-55.728c0-2.496.816-4.512 2.448-6.048 1.632-1.536 3.84-2.304 6.624-2.304 2.496 0 4.512.768 6.048 2.304 1.632 1.44 2.448 3.36 2.448 5.76v3.888c2.4-3.936 5.616-6.96 9.648-9.072 4.032-2.112 8.592-3.168 13.68-3.168zm73.867 0c9.792 0 17.04 2.448 21.744 7.344 4.8 4.8 7.2 12.144 7.2 22.032v35.136c0 2.592-.768 4.656-2.304 6.192-1.536 1.44-3.648 2.16-6.336 2.16-2.496 0-4.56-.768-6.192-2.304-1.536-1.536-2.304-3.552-2.304-6.048V174.2c-1.632 3.744-4.224 6.672-7.776 8.784-3.456 2.112-7.488 3.168-12.096 3.168-4.704 0-8.976-.96-12.816-2.88s-6.864-4.56-9.072-7.92c-2.208-3.36-3.312-7.104-3.312-11.232 0-5.184 1.296-9.264 3.888-12.24 2.688-2.976 7.008-5.136 12.96-6.48 5.952-1.344 14.16-2.016 24.624-2.016h3.6v-3.312c0-4.704-1.008-8.112-3.024-10.224-2.016-2.208-5.28-3.312-9.792-3.312-2.784 0-5.616.432-8.496 1.296-2.88.768-6.288 1.92-10.224 3.456-2.496 1.248-4.32 1.872-5.472 1.872-1.728 0-3.168-.624-4.32-1.872-1.056-1.248-1.584-2.88-1.584-4.896 0-1.632.384-3.024 1.152-4.176.864-1.248 2.256-2.4 4.176-3.456 3.36-1.824 7.344-3.264 11.952-4.32 4.704-1.056 9.312-1.584 13.824-1.584zm-4.464 60.336c4.8 0 8.688-1.584 11.664-4.752 3.072-3.264 4.608-7.44 4.608-12.528v-3.024h-2.592c-6.432 0-11.424.288-14.976.864-3.552.576-6.096 1.584-7.632 3.024-1.536 1.44-2.304 3.408-2.304 5.904 0 3.072 1.056 5.616 3.168 7.632 2.208 1.92 4.896 2.88 8.064 2.88zm92.597-60.336c8.448 0 14.736 2.4 18.864 7.2 4.128 4.8 6.192 12.048 6.192 21.744v35.424c0 2.688-.816 4.8-2.448 6.336-1.536 1.536-3.696 2.304-6.48 2.304-2.784 0-4.992-.768-6.624-2.304-1.632-1.536-2.448-3.648-2.448-6.336v-34.416c0-5.472-1.056-9.456-3.168-11.952-2.016-2.496-5.232-3.744-9.648-3.744-5.184 0-9.36 1.632-12.528 4.896-3.072 3.264-4.608 7.632-4.608 13.104v32.112c0 2.688-.816 4.8-2.448 6.336-1.632 1.536-3.84 2.304-6.624 2.304s-4.992-.768-6.624-2.304c-1.536-1.536-2.304-3.648-2.304-6.336v-55.728c0-2.496.816-4.512 2.448-6.048 1.632-1.536 3.84-2.304 6.624-2.304 2.496 0 4.512.768 6.048 2.304 1.632 1.44 2.448 3.36 2.448 5.76v3.888c2.4-3.936 5.616-6.96 9.648-9.072 4.032-2.112 8.592-3.168 13.68-3.168zm74.587 73.296c-7.008 0-13.2-1.488-18.576-4.464-5.28-2.976-9.36-7.2-12.24-12.672-2.88-5.472-4.32-11.856-4.32-19.152 0-7.296 1.488-13.728 4.464-19.296 3.072-5.664 7.344-10.032 12.816-13.104 5.472-3.072 11.76-4.608 18.864-4.608 3.744 0 7.488.528 11.232 1.584 3.84 1.056 7.2 2.496 10.08 4.32 3.072 2.016 4.608 4.56 4.608 7.632 0 2.112-.528 3.84-1.584 5.184-.96 1.248-2.256 1.872-3.888 1.872-1.056 0-2.16-.24-3.312-.72-1.152-.48-2.304-1.056-3.456-1.728-2.112-1.248-4.128-2.208-6.048-2.88-1.92-.768-4.128-1.152-6.624-1.152-5.952 0-10.56 1.968-13.824 5.904-3.168 3.84-4.752 9.408-4.752 16.704 0 7.2 1.584 12.768 4.752 16.704 3.264 3.84 7.872 5.76 13.824 5.76 2.4 0 4.512-.336 6.336-1.008 1.92-.768 4.032-1.776 6.336-3.024 1.44-.864 2.688-1.488 3.744-1.872 1.056-.48 2.112-.72 3.168-.72 1.536 0 2.832.672 3.888 2.016 1.056 1.344 1.584 3.024 1.584 5.04 0 1.632-.384 3.072-1.152 4.32-.672 1.152-1.824 2.208-3.456 3.168-2.976 1.92-6.432 3.456-10.368 4.608-3.936 1.056-7.968 1.584-12.096 1.584zm88.168-67.824c.768-1.728 1.776-2.976 3.024-3.744 1.344-.864 2.784-1.296 4.32-1.296 2.208 0 4.176.768 5.904 2.304 1.824 1.44 2.736 3.264 2.736 5.472 0 1.056-.288 2.16-.864 3.312l-39.312 82.368c-1.632 3.264-4.176 4.896-7.632 4.896-2.208 0-4.176-.72-5.904-2.16-1.632-1.344-2.448-3.072-2.448-5.184 0-1.056.288-2.256.864-3.6l9.792-20.592-26.784-55.728c-.48-.96-.72-2.064-.72-3.312 0-2.208.912-4.08 2.736-5.616 1.92-1.536 4.08-2.304 6.48-2.304 1.632 0 3.12.432 4.464 1.296 1.344.768 2.4 2.016 3.168 3.744l20.16 44.496 20.016-44.352z"
        fill="#EBF4FF" />
    <path
        d="M495.017 276h7.378v-17.301h16.923v-6.185h-16.923v-11.057h18.713v-6.184h-26.091V276zm72.005-20.364c0-13.164-8.035-20.92-18.713-20.92-10.699 0-18.714 7.756-18.714 20.92 0 13.145 8.015 20.921 18.714 20.921 10.678 0 18.713-7.756 18.713-20.921zm-7.418 0c0 9.267-4.653 14.299-11.295 14.299-6.623 0-11.296-5.032-11.296-14.299s4.673-14.298 11.296-14.298c6.642 0 11.295 5.031 11.295 14.298zM576.797 276h7.378v-14.915h7.517L599.686 276h8.233l-8.81-16.148c4.793-1.929 7.318-6.025 7.318-11.554 0-7.775-5.011-13.025-14.358-13.025h-15.272V276zm7.378-21.04v-13.522h6.761c5.508 0 7.974 2.525 7.974 6.86 0 4.336-2.466 6.662-7.934 6.662h-6.801zM632.709 276h25.316v-6.185h-17.938v-34.542h-7.378V276zm41.28 0l3.361-10.043h15.313l3.38 10.043h7.875l-14.358-40.727h-9.108L666.114 276h7.875zm5.35-15.969l5.508-16.406h.318l5.509 16.406h-11.335zM712.083 276h7.378v-14.915h7.517L734.972 276h8.233l-8.81-16.148c4.793-1.929 7.318-6.025 7.318-11.554 0-7.775-5.011-13.025-14.358-13.025h-15.272V276zm7.378-21.04v-13.522h6.761c5.508 0 7.974 2.525 7.974 6.86 0 4.336-2.466 6.662-7.934 6.662h-6.801zM756.535 276l3.36-10.043h15.313L778.589 276h7.875l-14.358-40.727h-9.108L748.66 276h7.875zm5.349-15.969l5.509-16.406h.318l5.508 16.406h-11.335zm33.544-24.758h-8.093L801.673 276h9.108l14.358-40.727h-8.114l-10.58 32.057h-.417l-10.6-32.057zM833.303 276h26.648v-6.185h-19.27v-11.116h17.738v-6.185h-17.738v-11.057h19.111v-6.184h-26.489V276zm36.816 0h25.315v-6.185h-17.938v-34.542h-7.377V276z"
        fill="#A3BFFA" />
    <defs>
        <filter id="filter0_dd" x="47.9678" y="34.735" width="294.842" height="331.068"
            filterUnits="userSpaceOnUse" color-interpolation-filters="sRGB">
            <feFlood flood-opacity="0" result="BackgroundImageFix" />
            <feColorMatrix in="SourceAlpha" values="0 0 0 0 0 0 0 0 0 0 0 0 0 0 0 0 0 0 127 0" />
            <feOffset dy="4" />
            <feGaussianBlur stdDeviation="3" />
            <feColorMatrix values="0 0 0 0 0 0 0 0 0 0 0 0 0 0 0 0 0 0 0.05 0" />
            <feBlend in2="BackgroundImageFix" result="effect1_dropShadow" />
            <feColorMatrix in="SourceAlpha" values="0 0 0 0 0 0 0 0 0 0 0 0 0 0 0 0 0 0 127 0" />
            <feOffset dy="10" />
            <feGaussianBlur stdDeviation="7.5" />
            <feColorMatrix values="0 0 0 0 0 0 0 0 0 0 0 0 0 0 0 0 0 0 0.1 0" />
            <feBlend in2="effect1_dropShadow" result="effect2_dropShadow" />
            <feBlend in="SourceGraphic" in2="effect2_dropShadow" result="shape" />
        </filter>
    </defs>
</svg>